<?xml version="1.0" encoding="utf-8"?>
<!-- Generator: Adobe Illustrator 23.0.2, SVG Export Plug-In . SVG Version: 6.00 Build 0)  -->
<svg version="1.1" id="Layer_1" xmlns="http://www.w3.org/2000/svg" xmlns:xlink="http://www.w3.org/1999/xlink" x="0px" y="0px"
	 viewBox="0 0 691 165.8" style="enable-background:new 0 0 691 165.8;" xml:space="preserve">
<style type="text/css">
	.st0{fill:#27898A;}
</style>
<g>
	<path class="st0" d="M691,19.1c0,5.3-1.9,9.8-5.8,13.5c-3.8,3.6-8.6,5.5-14.2,5.5c-2.7,0-5.3-0.5-7.7-1.5c-2.4-1-4.5-2.3-6.4-4
		c-1.8-1.7-3.3-3.7-4.3-6c-1-2.3-1.6-4.8-1.6-7.5c0-2.6,0.5-5.1,1.6-7.4c1-2.3,2.5-4.4,4.3-6.1c1.8-1.7,3.9-3,6.4-4
		c2.4-1,5-1.5,7.7-1.5c5.6,0,10.3,1.8,14.2,5.4C689.1,9.1,691,13.6,691,19.1z"/>
	<path class="st0" d="M42.4,162c-0.5,0.7-2.1,1-4.7,1H5.3c-3.5,0-5.3-1.6-5.3-4.8V7.8C0,4.6,1.8,3,5.3,3h32.5c2.6,0,4.2,0.3,4.7,1
		c0.5,0.7,0.8,1.9,0.8,3.8v150.4C43.2,160,42.9,161.3,42.4,162z"/>
	<path class="st0" d="M120.5,72.7c-1.4,0-3.3,0.1-5.7,0.2c-2.4,0.2-4.7,0.4-6.6,0.7v84.8c0,1.8-0.3,3.1-0.8,3.7
		c-0.5,0.6-2.1,0.9-4.7,0.9H72.3c-3.5,0-5.3-1.5-5.3-4.6V60.4c0-4.9,0.8-8.8,2.3-11.8c1.5-3,5-5.1,10.3-6.3c1.5-0.3,3.8-0.6,6.9-1
		c3-0.4,6.4-0.7,9.9-0.9c3.6-0.2,7.2-0.4,10.9-0.6c3.7-0.1,6.8-0.2,9.4-0.2c11.1,0,20.9,1,29.3,3.1c8.4,2.1,15.4,5.5,20.9,10.3
		c5.6,4.8,9.7,11.1,12.5,18.7c2.7,7.7,4.1,17.1,4.1,28.2v58.5c0,1.8-0.3,3.1-0.8,3.7c-0.5,0.6-2.1,0.9-4.7,0.9H147
		c-3.5,0-5.3-1.5-5.3-4.6V96c0-7.8-1.5-13.6-4.5-17.5C134.3,74.6,128.7,72.7,120.5,72.7z"/>
	<path class="st0" d="M202.6,56.3c-0.7-6.5-0.3-12.9,1.3-19.1c1.6-6.2,4.4-11.9,8.5-16.9c4.1-5,9.7-9.3,16.7-12.7
		c7-3.4,15.5-5.7,25.5-6.7c9.2-1,18.7-1.1,28.4-0.4c9.7,0.7,17.9,2.5,24.8,5.3c2.7,0.9,4.2,1.9,4.5,3c0.3,1,0,3.2-0.9,6.5l-4.1,19.5
		c-0.8,3-1.6,4.8-2.5,5.3c-0.9,0.6-2.7,0.6-5.4,0.1c-6.7-1.1-13.6-1.8-20.6-2.1c-7-0.2-13.5-0.1-19.4,0.6c-5.3,0.6-8.7,1.7-10.3,3.4
		c-1.6,1.7-2.3,3.6-2,5.7c0.1,0.9,0.4,1.8,0.9,2.8c0.5,0.9,1.4,1.9,2.6,2.9c1.3,1,3,2,5.4,3c2.3,1,5.5,1.9,9.4,2.9
		c9.5,2.5,18,5.1,25.7,7.7c7.6,2.6,14.2,5.8,19.6,9.5c5.5,3.7,9.8,8.2,13.2,13.4c3.3,5.2,5.4,11.6,6.2,19
		c1.7,16.4-2.3,29.2-12.2,38.5c-9.9,9.3-24.7,15.1-44.4,17.2c-10.3,1.1-21.2,1.2-32.7,0.3c-11.5-0.9-22.1-3.7-31.8-8.3
		c-1.6-0.7-2.6-1.7-2.9-2.8s-0.2-2.9,0.5-5.2l6.6-22.5c0.8-2.7,1.7-4.2,2.7-4.7c1-0.4,2.7-0.3,5.1,0.4c2.4,0.7,5.4,1.3,9.1,2
		c3.7,0.7,7.6,1.3,11.8,1.7c4.2,0.5,8.5,0.8,13.1,0.9c4.5,0.1,8.9,0,13.2-0.5c3.6-0.4,6.5-1,8.5-1.9c2-0.9,3.6-1.9,4.7-3
		c1.1-1.1,1.8-2.3,2-3.6c0.2-1.3,0.3-2.3,0.2-3.2c-0.1-1.2-0.4-2.4-0.8-3.6c-0.4-1.2-1.3-2.3-2.5-3.3c-1.3-1-3.2-2-5.7-3.1
		c-2.6-1-6-2.1-10.2-3.2c-8.2-2-15.9-4.2-23-6.6c-7.2-2.4-13.4-5.3-18.9-8.7c-5.4-3.4-9.8-7.5-13.3-12.3
		C205.4,68.9,203.3,63.1,202.6,56.3z"/>
	<path class="st0" d="M422.7,159c-0.1,0.7-1,1.3-2.9,1.9c-6.4,2-12.7,3.2-18.7,3.8c-6.1,0.5-11.7,0.8-16.9,0.8
		c-13.9,0-23.9-3-30.1-8.9c-6.2-5.9-9.3-14.2-9.3-24.7V72.5h-16c-1.8,0-3-0.5-3.4-1.5c-0.5-1-0.7-2.1-0.7-3.3V51.4
		c0-1.5,0.2-2.6,0.6-3.1c0.4-0.5,1.5-1,3.3-1.5l16.2-4.1v-21c0-2.1,0.5-3.6,1.4-4.5c0.9-0.8,2.2-1.5,3.9-1.9L380.5,6
		c1.7-0.5,3-0.3,4,0.3c1,0.7,1.5,2,1.5,4V43h25.6c2,0,3.1,0.3,3.3,0.9c0.2,0.6,0.3,1.7,0.3,3.2v20.6c0,1.7-0.1,2.9-0.2,3.7
		c-0.2,0.8-1.3,1.1-3.4,1.1H386v48.2c0,3.8,1,6.4,3,7.8c2,1.4,5.1,2.1,9.4,2.1c2.4,0,5.4-0.2,9-0.6c3.6-0.4,6.3-0.7,8.1-1
		c1.2-0.1,2.1-0.1,2.6,0.2c0.5,0.3,0.9,1.1,1,2.3l3.4,24.9C422.8,157.4,422.8,158.3,422.7,159z"/>
	<path class="st0" d="M540.8,146.1c0,2.1-0.2,4-0.7,5.6c-0.5,1.6-2.1,3.2-5,4.7c-3.5,1.7-7.4,3.1-11.5,4.3c-4.2,1.2-8.5,2.2-12.9,3
		c-4.4,0.8-8.9,1.3-13.4,1.6c-4.5,0.3-8.7,0.5-12.7,0.5c-10.5,0-19.4-1-26.5-2.9c-7.2-1.9-12.9-4.6-17.3-8
		c-4.3-3.4-7.4-7.5-9.3-12.2c-1.8-4.7-2.7-9.8-2.7-15.3c0-13.4,4.2-23.6,12.6-30.5c8.4-6.9,19.6-10.4,33.6-10.4h24.9v-3.2
		c0-1.1-0.2-2.3-0.5-3.7c-0.3-1.4-1-2.7-2.2-3.9c-1.1-1.2-2.7-2.2-4.8-3c-2.1-0.8-4.8-1.1-8.1-1.1c-2.1,0-4.6,0.1-7.3,0.3
		s-5.6,0.5-8.7,0.8c-3,0.3-6.1,0.7-9,1.1c-3,0.5-5.7,1-8.1,1.6c-2.1,0.6-3.6,0.6-4.3,0c-0.8-0.6-1.3-1.8-1.6-3.4l-4.3-19.7
		c-0.5-2.1-0.5-3.5,0-4.2c0.5-0.7,1.3-1.3,2.5-1.7c7.3-2.4,14.7-4.2,22.2-5.4c7.5-1.1,15.5-1.7,24.2-1.7c17.4,0,30.2,3.5,38.5,10.6
		c8.3,7.1,12.5,17.9,12.5,32.6V146.1z M499.6,110.7h-13.4c-1.7,0-3.3,0.2-5,0.5c-1.7,0.3-3.2,0.9-4.5,1.7c-1.4,0.8-2.5,2.1-3.4,3.7
		c-0.9,1.6-1.4,3.7-1.4,6.3c0,3.7,1.3,6.3,4,8c2.6,1.7,6.2,2.5,10.5,2.5c1.1,0,3.1-0.2,6-0.5c2.9-0.3,5.3-0.9,7.1-1.8V110.7z"/>
	<path class="st0" d="M642.2,159c-0.1,0.7-1,1.3-2.9,1.9c-6.4,2-12.7,3.2-18.7,3.8c-6.1,0.5-11.7,0.8-16.9,0.8
		c-13.9,0-23.9-3-30.1-8.9c-6.2-5.9-9.3-14.2-9.3-24.7V72.5h-16c-1.8,0-3-0.5-3.4-1.5c-0.5-1-0.7-2.1-0.7-3.3V51.4
		c0-1.5,0.2-2.6,0.6-3.1c0.4-0.5,1.5-1,3.3-1.5l16.2-4.1v-21c0-2.1,0.5-3.6,1.4-4.5c0.9-0.8,2.2-1.5,3.9-1.9L600,6
		c1.7-0.5,3-0.3,4,0.3c1,0.7,1.5,2,1.5,4V43h25.6c2,0,3.1,0.3,3.3,0.9c0.2,0.6,0.3,1.7,0.3,3.2v20.6c0,1.7-0.1,2.9-0.2,3.7
		c-0.2,0.8-1.3,1.1-3.4,1.1h-25.6v48.2c0,3.8,1,6.4,3,7.8c2,1.4,5.1,2.1,9.4,2.1c2.4,0,5.4-0.2,9-0.6c3.6-0.4,6.3-0.7,8.1-1
		c1.2-0.1,2.1-0.1,2.6,0.2c0.5,0.3,0.9,1.1,1,2.3l3.4,24.9C642.2,157.4,642.3,158.3,642.2,159z"/>
</g>
</svg>
