<?xml version="1.0" encoding="utf-8"?>
<!-- Generator: Adobe Illustrator 22.1.0, SVG Export Plug-In . SVG Version: 6.00 Build 0)  -->
<svg version="1.1" id="Layer_1" xmlns="http://www.w3.org/2000/svg" xmlns:xlink="http://www.w3.org/1999/xlink" x="0px" y="0px"
	 viewBox="0 0 219.4 219.3" style="enable-background:new 0 0 219.4 219.3;" xml:space="preserve">
<style type="text/css">
	.st0{display:none;fill:#1D1D1B;}
	.st1{fill:#1D1D1B;}
</style>
<polygon class="st0" points="219.4,0.4 0.6,170.4 219.2,170.4 219.2,170.6 0.3,170.6 0.2,170.7 0.2,170.6 0.1,170.6 0.1,170.5 
	0,170.4 0.1,170.3 0,170.2 72.8,0 73.2,0.2 0.6,169.9 219.1,0.1 "/>
<g>
	<polygon class="st1" points="0.2,146.3 36.7,146.3 218.9,219.2 219,219 37.2,146.3 219.1,146.3 219.1,146 0.2,146 	"/>
	<polygon class="st1" points="219.1,0.3 219.1,0.1 36.7,73 36.7,73.1 0.2,73.1 0.2,73.4 219.1,73.4 219.1,73.1 37,73.1 	"/>
</g>
</svg>
