<?xml version="1.0" encoding="utf-8"?>
<!-- Generator: Adobe Illustrator 22.1.0, SVG Export Plug-In . SVG Version: 6.00 Build 0)  -->
<svg version="1.1" id="Layer_1" xmlns="http://www.w3.org/2000/svg" xmlns:xlink="http://www.w3.org/1999/xlink" x="0px" y="0px"
	 viewBox="0 0 219.4 219.3" style="enable-background:new 0 0 219.4 219.3;" xml:space="preserve">
<style type="text/css">
	.st0{display:none;fill:#1D1D1B;}
	.st1{fill:#FFFFFF;}
</style>
<polygon class="st0" points="219.4,218.8 0.6,48.9 219.2,48.9 219.2,48.6 0.3,48.6 0.2,48.6 0.2,48.6 0.1,48.6 0.1,48.8 0,48.9 
	0.1,49 0,49 72.8,219.3 73.2,219.1 0.6,49.4 219.1,219.2 "/>
<g>
	<polygon class="st1" points="0.6,49.4 73.2,219 218.9,219 	"/>
	<polygon class="st1" points="0.5,50.1 0.5,219 72.7,219 	"/>
	<polygon class="st1" points="219.1,48.6 219.2,48.6 219.2,0 0.3,0 0.3,48.6 219.1,48.6 	"/>
	<polygon class="st1" points="219.1,48.9 219.1,48.9 0.5,48.9 219.2,218.8 219.2,48.9 	"/>
</g>
</svg>
