<?xml version="1.0" encoding="utf-8"?>
<!-- Generator: Adobe Illustrator 22.1.0, SVG Export Plug-In . SVG Version: 6.00 Build 0)  -->
<svg version="1.1" id="Layer_1" xmlns="http://www.w3.org/2000/svg" xmlns:xlink="http://www.w3.org/1999/xlink" x="0px" y="0px"
	 viewBox="0 0 219.4 219.3" style="enable-background:new 0 0 219.4 219.3;" xml:space="preserve">
<style type="text/css">
	.st0{display:none;fill:#1D1D1B;}
	.st1{fill:#1D1D1B;}
	.st2{fill:#FFFFFF;}
</style>
<polygon class="st0" points="219.4,0.4 0.6,170.4 219.2,170.4 219.2,170.6 0.3,170.6 0.2,170.7 0.2,170.6 0.1,170.6 0.1,170.5 
	0,170.4 0.1,170.3 0,170.2 72.8,0 73.2,0.2 0.6,169.9 219.1,0.1 "/>
<g>
	<g>
		<polygon class="st1" points="0.2,146.6 36.7,146.6 218.9,219.5 219,219.3 37.2,146.6 219.1,146.6 219.1,146.4 0.2,146.4 		"/>
		<polygon class="st1" points="219.1,0.6 219.1,0.5 36.7,73.4 36.7,73.5 0.2,73.5 0.2,73.7 219.1,73.7 219.1,73.5 37,73.5 		"/>
	</g>
	<polygon class="st2" points="219.1,20.4 219.1,20.3 219.1,20.3 	"/>
	<polygon class="st2" points="36.7,73.4 36.7,73.3 218.8,0.5 0.2,0.5 0.2,73.4 	"/>
	<polygon class="st2" points="36.7,146.6 0.2,146.6 0.2,219.3 218.7,219.3 	"/>
	<g>
		<polygon class="st2" points="219.1,146.5 219.1,146.5 37.2,146.5 219,219.2 219,219.3 219.1,219.3 219.1,146.5 		"/>
		<polygon class="st2" points="218.9,73.3 219.1,73.3 219.1,0.5 37,73.3 218.9,73.3 		"/>
		<polygon class="st2" points="219.1,73.6 218.9,73.6 0.2,73.6 0.2,146.2 218.9,146.2 219.1,146.2 219.1,146.2 219.1,73.6 		"/>
	</g>
</g>
</svg>
