<?xml version="1.0" encoding="utf-8"?>
<!-- Generator: Adobe Illustrator 22.1.0, SVG Export Plug-In . SVG Version: 6.00 Build 0)  -->
<svg version="1.1" id="Layer_1" xmlns="http://www.w3.org/2000/svg" xmlns:xlink="http://www.w3.org/1999/xlink" x="0px" y="0px"
	 viewBox="0 0 12.9 16" style="enable-background:new 0 0 12.9 16;" xml:space="preserve">
<style type="text/css">
	.st0{fill:#010101;}
</style>
<path class="st0" d="M4.7,8C4.6,8,4.5,8,4.5,8L4.1,8.5c0.6,0.2,2.6,1,2.6,1c0.6,0.2,0.6,0.2,0.7,0.8l1,4.3c0.4,1.6-1.6,1.7-1.9,0.7
	l-1-4l-1.5-0.6c0.2,0.6,0.1,0.7-0.1,1.3c-0.4,1-1,2.3-1.5,3.2c-0.7,1.3-2.3,0.4-1.9-0.7l1.2-2.7C2,11.4,2,11.4,1.9,11.2
	c-0.4-0.5-1.5-1.6-1.7-2.1C0,8.7,0,8.3,0.1,7.9C0.3,7.1,3,4.6,4,3.7c0.4-0.4,0.8-0.5,1.3-0.3c0.6,0.2,5.1,3.2,6,3.9
	c0.6,0.6,0.1,1.9-1,1.7L4.7,8z M6.5,6L6.1,6.4l2.2,0.8L6.5,6z"/>
<path class="st0" d="M6.2,0c0.9,0,1.6,0.7,1.6,1.6S7.1,3.1,6.2,3.1c-0.9,0-1.6-0.7-1.6-1.6S5.3,0,6.2,0z"/>
<path class="st0" d="M11.6,3.5c0.7,0,1.2,0.5,1.2,1.2s-0.5,1.2-1.2,1.2c-0.7,0-1.2-0.5-1.2-1.2S11,3.5,11.6,3.5z"/>
</svg>