<?xml version="1.0" encoding="utf-8"?>
<!-- Generator: Adobe Illustrator 22.1.0, SVG Export Plug-In . SVG Version: 6.00 Build 0)  -->
<svg version="1.1" id="Layer_1" xmlns="http://www.w3.org/2000/svg" xmlns:xlink="http://www.w3.org/1999/xlink" x="0px" y="0px"
	 viewBox="0 0 15.6 15.6" style="enable-background:new 0 0 15.6 15.6;" xml:space="preserve">
<style type="text/css">
	.st0{fill:#1E1E1C;}
	.st1{fill:#1E1E1C;stroke:#1E1E1C;stroke-width:0.5;stroke-miterlimit:10;}
</style>
<g>
	<path class="st0" d="M6,1.5c2.5,0,4.5,2,4.5,4.5s-2,4.5-4.5,4.5S1.5,8.5,1.5,6S3.5,1.5,6,1.5 M6,0C2.7,0,0,2.7,0,6c0,3.3,2.7,6,6,6
		c3.3,0,6-2.7,6-6C12,2.7,9.3,0,6,0L6,0z"/>
</g>
<path class="st1" d="M15.2,15.2L15.2,15.2c-0.2,0.2-0.5,0.2-0.7,0l-5-5c-0.2-0.2-0.2-0.5,0-0.7l0,0c0.2-0.2,0.5-0.2,0.7,0l5,5
	C15.4,14.7,15.4,15,15.2,15.2z"/>
</svg>
