<?xml version="1.0" encoding="utf-8"?>
<!-- Generator: Adobe Illustrator 22.1.0, SVG Export Plug-In . SVG Version: 6.00 Build 0)  -->
<svg version="1.1" id="Layer_1" xmlns="http://www.w3.org/2000/svg" xmlns:xlink="http://www.w3.org/1999/xlink" x="0px" y="0px"
	 viewBox="0 0 16 16" style="enable-background:new 0 0 16 16;" xml:space="preserve">
<style type="text/css">
	.st0{fill:#0D0D0D;}
</style>
<path class="st0" d="M8,16L8,16c-7.9-1.7-7-13.4-7-13.4C5.2,3.1,7.7,0.4,8,0.1V0l0,0l0,0v0.1c0.3,0.4,2.8,3,6.9,2.5
	C15,2.6,16,14.3,8,16z M13.5,3.5C10.2,3.9,8.3,1.9,8,1.6V1.5l0,0l0,0v0.1C7.7,1.9,5.8,3.9,2.5,3.5c0,0-0.8,9.8,5.5,11.1l0,0
	C14.3,13.3,13.5,3.5,13.5,3.5z M8,13.6L8,13.6c-0.2-0.1-0.3-0.1-0.4-0.1l4.7-5.2C11.8,10.5,10.7,13,8,13.6z M5.6,12.3l7-7.6
	c0,0.4,0,1-0.1,1.7l-6,6.6C6.2,12.8,5.9,12.6,5.6,12.3z M3.4,4.3C6.2,4.7,7.8,3,8,2.7V2.7l0,0l0,0v0.1C8.1,3,9.4,4.2,11.5,4.4
	l-6.6,7C3.1,8.6,3.4,4.3,3.4,4.3z"/>
</svg>
