<?xml version="1.0" encoding="utf-8"?>
<!-- Generator: Adobe Illustrator 22.1.0, SVG Export Plug-In . SVG Version: 6.00 Build 0)  -->
<svg version="1.1" id="Layer_1" xmlns="http://www.w3.org/2000/svg" xmlns:xlink="http://www.w3.org/1999/xlink" x="0px" y="0px"
	 viewBox="0 0 18 18" style="enable-background:new 0 0 18 18;" xml:space="preserve">
<style type="text/css">
	.st0{fill:#9A999A;}
</style>
<path id="World_Clock_Icon_-_Inactive" class="st0" d="M18,8.8C17.9,4.1,14.2,0.3,9.5,0l0,0L8.8,0l0,0C4.1,0.1,0.3,3.8,0,8.5l0,0
	l0,0.7l0,0c0.1,4.7,3.8,8.5,8.5,8.8l0,0l0.7,0l0,0c4.7-0.1,8.5-3.8,8.8-8.5l0,0L18,8.8L18,8.8z M13.7,8.7c0-1.5-0.2-2.9-0.5-4.2
	c0.8-0.2,1.6-0.5,2.3-0.9c1.2,1.4,1.9,3.2,1.9,5.1L13.7,8.7z M11.2,1c1.4,0.4,2.7,1.2,3.7,2.2c-0.6,0.3-1.3,0.5-2,0.7
	C12.5,2.7,11.9,1.7,11.2,1z M12.3,4.1c-0.9,0.2-1.8,0.3-2.8,0.3l0.1-3.6C10.7,1,11.7,2.2,12.3,4.1z M8.8,0.7L8.7,4.3
	c-1,0-1.9-0.2-2.8-0.4C6.6,2.1,7.7,0.9,8.8,0.7z M5.3,3.8C4.5,3.6,3.9,3.3,3.3,3c1-1,2.4-1.7,3.8-2.1C6.4,1.6,5.7,2.6,5.3,3.8z
	 M8.7,5L8.6,8.6L5,8.6c0.1-1.4,0.3-2.8,0.7-4C6.6,4.8,7.6,5,8.7,5z M8.6,9.4L8.6,13c-1.1,0-2.1,0.1-3,0.3C5.2,12.1,5,10.7,5,9.3
	L8.6,9.4z M8.5,13.6l-0.1,3.6c-1.1-0.2-2.1-1.5-2.8-3.4C6.6,13.7,7.6,13.6,8.5,13.6z M6.8,17c-1.4-0.4-2.7-1.2-3.7-2.2
	c0.6-0.3,1.3-0.5,2-0.7C5.5,15.3,6.1,16.3,6.8,17z M9.2,17.3l0.1-3.6c1,0,1.9,0.2,2.8,0.4C11.4,15.9,10.3,17.1,9.2,17.3z M12.7,14.2
	c0.7,0.2,1.4,0.5,2,0.8c-1,1-2.4,1.7-3.8,2.1C11.6,16.4,12.3,15.4,12.7,14.2z M9.3,13l0.1-3.6L13,9.4c-0.1,1.4-0.3,2.8-0.7,4
	C11.4,13.2,10.4,13,9.3,13z M9.4,8.6L9.4,5c1.1,0,2.1-0.1,3-0.3c0.3,1.2,0.5,2.5,0.5,4L9.4,8.6z M2.8,3.5c0.7,0.4,1.4,0.7,2.2,1
	C4.6,5.6,4.4,7,4.3,8.5L0.7,8.5C0.8,6.5,1.6,4.8,2.8,3.5z M4.3,9.3c0,1.5,0.2,2.9,0.5,4.2c-0.8,0.2-1.6,0.5-2.3,0.9
	c-1.2-1.4-1.9-3.2-1.9-5.1L4.3,9.3z M15.2,14.5c-0.7-0.4-1.4-0.7-2.2-1c0.4-1.2,0.6-2.6,0.7-4.1l3.6,0.1
	C17.2,11.4,16.4,13.2,15.2,14.5z"/>
</svg>
