<?xml version="1.0" encoding="utf-8"?>
<!-- Generator: Adobe Illustrator 22.0.1, SVG Export Plug-In . SVG Version: 6.00 Build 0)  -->
<svg version="1.1" id="Слой_1" xmlns="http://www.w3.org/2000/svg" xmlns:xlink="http://www.w3.org/1999/xlink" x="0px" y="0px"
	 viewBox="0 0 16 16" style="enable-background:new 0 0 16 16;" xml:space="preserve">
<style type="text/css">
	.st0{display:none;fill:#4D6467;stroke:#4D6467;stroke-width:0.25;stroke-miterlimit:10;}
	.st1{display:none;}
	.st2{display:inline;}
	.st3{fill:#4D6467;}
	.st4{display:none;fill:#4D6467;}
	.st5{display:inline;fill:#4D6467;}
</style>
<title>Setting</title>
<path class="st0" d="M8,1.6c0.2,0,0.3,0,0.5,0l0.4,1.6l0.1,0.3l0.3,0.1c0.3,0.1,0.7,0.2,1,0.4l0.3,0.2L10.8,4l1.4-0.9
	c0.2,0.2,0.5,0.4,0.7,0.7L12,5.2l-0.2,0.3L12,5.8c0.2,0.3,0.3,0.6,0.4,1l0.1,0.3l0.3,0.1l1.6,0.4c0,0.2,0,0.3,0,0.5s0,0.3,0,0.5
	l-1.6,0.4l-0.3,0.1l-0.1,0.3c-0.1,0.3-0.2,0.7-0.4,1l-0.2,0.3l0.2,0.3l0.9,1.4c-0.2,0.2-0.4,0.5-0.7,0.7L10.8,12l-0.3-0.2L10.2,12
	c-0.3,0.2-0.6,0.3-1,0.4l-0.3,0.1l-0.1,0.3l-0.4,1.6c-0.2,0-0.3,0-0.5,0s-0.3,0-0.5,0l-0.3-1.6l-0.1-0.3l-0.3-0.1
	c-0.3-0.1-0.7-0.2-1-0.4l-0.3-0.2L5.2,12l-1.4,0.9c-0.2-0.2-0.5-0.4-0.7-0.7L4,10.8l0.2-0.3L4,10.2c-0.2-0.3-0.3-0.6-0.4-1L3.5,8.9
	L3.2,8.8L1.6,8.5c0-0.2,0-0.3,0-0.5c0-0.2,0-0.3,0-0.5l1.6-0.4l0.3-0.1l0.1-0.3c0.1-0.3,0.2-0.7,0.4-1l0.2-0.3L4,5.2L3.1,3.8
	c0.2-0.2,0.4-0.5,0.7-0.7L5.2,4l0.3,0.2L5.8,4c0.3-0.2,0.6-0.3,1-0.4l0.3-0.1l0.1-0.3l0.4-1.6C7.7,1.6,7.8,1.6,8,1.6 M8,10.9
	c1.6,0,2.9-1.3,2.9-2.9S9.6,5.1,8,5.1S5.1,6.4,5.1,8C5.1,9.6,6.4,10.9,8,10.9 M8,1C7.7,1,7.4,1,7.1,1.1l-0.5,2
	C6.2,3.2,5.8,3.3,5.5,3.5L3.8,2.4c-0.5,0.4-1,0.8-1.3,1.3l1.1,1.7C3.3,5.8,3.2,6.2,3.1,6.6l-2,0.5C1,7.4,1,7.7,1,8
	c0,0.3,0,0.6,0.1,0.9l2,0.5c0.1,0.4,0.3,0.8,0.5,1.1l-1.1,1.7c0.4,0.5,0.8,1,1.3,1.3l1.7-1.1c0.3,0.2,0.7,0.3,1.1,0.5l0.5,2
	C7.4,15,7.7,15,8,15c0.3,0,0.6,0,0.9-0.1l0.5-2c0.4-0.1,0.8-0.3,1.1-0.5l1.7,1.1c0.5-0.4,1-0.8,1.3-1.3l-1.1-1.7
	c0.2-0.3,0.3-0.7,0.5-1.1l2-0.5C15,8.6,15,8.3,15,8c0-0.3,0-0.6-0.1-0.9l-2-0.5c-0.1-0.4-0.3-0.8-0.5-1.1l1.1-1.7
	c-0.4-0.5-0.8-1-1.3-1.3l-1.7,1.1c-0.3-0.2-0.7-0.3-1.1-0.5l-0.5-2C8.6,1,8.3,1,8,1z M8,10.3c-1.3,0-2.3-1-2.3-2.3
	c0-1.3,1-2.3,2.3-2.3c1.3,0,2.3,1,2.3,2.3S9.3,10.3,8,10.3C8,10.3,8,10.3,8,10.3z"/>
<g class="st1">
	<g class="st2">
		<path class="st3" d="M8,2c3.3,0,6,2.7,6,6s-2.7,6-6,6s-6-2.7-6-6S4.7,2,8,2 M8,1C4.1,1,1,4.1,1,8s3.1,7,7,7s7-3.1,7-7S11.9,1,8,1
			L8,1z"/>
	</g>
	<g class="st2">
		<g>
			<polygon class="st3" points="8.5,3 7.5,3 7.5,9.5 8.5,9.5 8.5,3 			"/>
		</g>
		<g>
			<polygon class="st3" points="8,13 5,9.5 11,9.5 			"/>
		</g>
	</g>
</g>
<g class="st1">
	<g class="st2">
		<path class="st3" d="M8,2c3.3,0,6,2.7,6,6s-2.7,6-6,6s-6-2.7-6-6S4.7,2,8,2 M8,1C4.1,1,1,4.1,1,8s3.1,7,7,7s7-3.1,7-7S11.9,1,8,1
			L8,1z"/>
	</g>
	<g class="st2">
		<polygon class="st3" points="8.5,4 7.5,4 7.5,12 8.5,12 8.5,4 		"/>
	</g>
	<g class="st2">
		<polygon class="st3" points="12,7.5 4,7.5 4,8.5 12,8.5 12,7.5 		"/>
	</g>
</g>
<g class="st1">
	<g class="st2">
		<path class="st3" d="M8,2c3.3,0,6,2.7,6,6s-2.7,6-6,6s-6-2.7-6-6S4.7,2,8,2 M8,1C4.1,1,1,4.1,1,8s3.1,7,7,7s7-3.1,7-7S11.9,1,8,1
			L8,1z"/>
	</g>
	<g class="st2">
		<g>
			<polygon class="st3" points="5.3,4.5 4.5,5.3 10.7,11.5 11.5,10.7 5.3,4.5 			"/>
		</g>
		<g>
			<polygon class="st3" points="10.7,4.5 4.5,10.7 5.3,11.5 11.5,5.3 10.7,4.5 			"/>
		</g>
	</g>
</g>
<polygon class="st4" points="8,15 8,15 8,15 "/>
<g class="st1">
	<polygon class="st5" points="8,13.6 8.5,13.1 8.5,1 7.5,1 7.5,13.1 	"/>
	<polygon class="st5" points="13,10.1 12.2,9.3 8,13.6 3.8,9.3 3,10.1 8,15 8,15 8,15 	"/>
</g>
<g>
	<polygon class="st3" points="8,2.4 8.5,2.9 8.5,15 7.5,15 7.5,2.9 	"/>
	<polygon class="st3" points="13,5.9 12.2,6.7 8,2.4 3.8,6.7 3,5.9 8,1 8,1 8,1 	"/>
</g>
</svg>
