<?xml version="1.0" encoding="utf-8"?>
<!-- Generator: Adobe Illustrator 22.1.0, SVG Export Plug-In . SVG Version: 6.00 Build 0)  -->
<svg version="1.1" id="Layer_1" xmlns="http://www.w3.org/2000/svg" xmlns:xlink="http://www.w3.org/1999/xlink" x="0px" y="0px"
	 viewBox="0 0 18 18" style="enable-background:new 0 0 18 18;" xml:space="preserve">
<style type="text/css">
	.st0{fill:#9A999A;}
</style>
<path id="Contacts_Icon_-_Inactive" class="st0" d="M9,0C4,0,0,4,0,9s4,9,9,9c5,0,9-4,9-9S14,0,9,0z M14.3,15.4
	c-0.2-0.1-0.4-0.2-0.5-0.2c-0.5-0.2-1.1-0.3-1.6-0.4c-0.7-0.1-1-0.5-1.1-1.3c0-0.1-0.2-1.1,0-1.1c0.5-0.2,0.6-1,0.6-1.5
	c0-0.4,0.2-0.5,0.4-0.8c0.2-0.3,0.3-0.7,0.4-1c0.1-0.3,0.2-0.7,0.2-0.9c0-0.2-0.2-0.5-0.2-0.7c0-0.3,0.1-0.7,0.2-1
	c0.1-0.5,0-1-0.1-1.6c-0.3-1.4-1.6-1.9-2.9-2.1C8.4,2.3,7,2.9,6.2,3.8C5.9,4.1,5.5,4.5,5.5,5c-0.1,0.4-0.1,1,0,1.4
	c0,0.2,0.1,0.5,0.1,0.7c0,0.2,0.2,0.4,0.1,0.6c0,0.1-0.1,0.2-0.1,0.3c-0.2,0.5,0,1.1,0.2,1.6C5.9,9.8,6,10,6.1,10.2
	c0.2,0.2,0.2,0.4,0.2,0.6c0,0.5,0.2,1.3,0.7,1.6c0.1,0.1-0.1,0.9-0.1,1c0,0.8,0.1,1.1-0.7,1.3c-0.5,0.1-1.1,0.2-1.6,0.4
	c-0.2,0.1-0.5,0.2-0.8,0.3C1.9,14,0.7,11.6,0.7,9c0-4.6,3.7-8.3,8.3-8.3s8.3,3.7,8.3,8.3C17.3,11.6,16.1,13.9,14.3,15.4z"/>
</svg>
