<?xml version="1.0" encoding="utf-8"?>
<!-- Generator: Adobe Illustrator 22.0.1, SVG Export Plug-In . SVG Version: 6.00 Build 0)  -->
<svg version="1.1" id="Layer_1" xmlns="http://www.w3.org/2000/svg" xmlns:xlink="http://www.w3.org/1999/xlink" x="0px" y="0px"
	 viewBox="0 0 14 14" style="enable-background:new 0 0 14 14;" xml:space="preserve">
<style type="text/css">
	.st0{fill:#69615E;}
</style>
<g>
	<path class="st0" d="M2.9,4.5c1.1,0,2,0.9,2,2s-0.9,2-2,2s-2-0.9-2-2S1.7,4.5,2.9,4.5 M2.9,3.7C1.3,3.7,0,5,0,6.5
		c0,1.6,1.3,2.9,2.9,2.9s2.9-1.3,2.9-2.9C5.7,5,4.4,3.7,2.9,3.7L2.9,3.7z"/>
	<path class="st0" d="M11.1,0.8c1.1,0,2,0.9,2,2s-0.9,2-2,2s-2-0.9-2-2S10,0.8,11.1,0.8 M11.1,0C9.6,0,8.3,1.3,8.3,2.9
		s1.3,2.9,2.9,2.9S14,4.4,14,2.9S12.7,0,11.1,0L11.1,0z"/>
	<path class="st0" d="M11.1,9.1c1.1,0,2,0.9,2,2s-0.9,2-2,2s-2-0.9-2-2S10,9.1,11.1,9.1 M11.1,8.3c-1.6,0-2.9,1.3-2.9,2.9
		S9.6,14,11.1,14s2.9-1.3,2.9-2.9S12.7,8.3,11.1,8.3L11.1,8.3z"/>
	<g>
		<path class="st0" d="M5.6,5.8l3.1-1.4C8.6,4.2,8.5,3.9,8.4,3.6L5.2,5C5.4,5.2,5.5,5.5,5.6,5.8z"/>
		<path class="st0" d="M5.6,7.5C5.4,7.8,5.3,8.1,5.1,8.3l3.4,1.9c0.1-0.3,0.3-0.6,0.5-0.8L5.6,7.5z"/>
	</g>
</g>
</svg>
