<svg xmlns="http://www.w3.org/2000/svg" xmlns:xlink="http://www.w3.org/1999/xlink" width="14.406" height="14.406" viewBox="0 0 14.406 14.406">
  <defs>
    <style>
      .cls-1 {
        fill: #0D0D0D;
        fill-rule: evenodd;
        filter: url(#filter);
      }
    </style>
    <filter id="filter" x="34" y="675" width="14.406" height="14.406" filterUnits="userSpaceOnUse">
      <feFlood result="flood" flood-color="#fefdfd"/>
      <feComposite result="composite" operator="in" in2="SourceGraphic"/>
      <feBlend result="blend" in2="SourceGraphic"/>
    </filter>
  </defs>
  <path id="ТУРНИР_ICON_copy_2" data-name="ТУРНИР ICON copy 2" class="cls-1" d="M42.518,685.1h0.005l0.2-.265c4.348-3.615,5.685-5.917,5.672-7.376-0.02-2.342-2.352-3.431-3.494-1.351a0.056,0.056,0,0,0,.006.012H37.491A0.035,0.035,0,0,0,37.5,676.1c-1.142-2.08-3.474-.991-3.494,1.351-0.012,1.429,1.269,3.666,5.4,7.151,0.049,0.058.1,0.117,0.148,0.174l0.221,0.291a3.515,3.515,0,0,1,.691,1.642,1.884,1.884,0,0,1-.43,1.349h-0.1v0h0.1a0.5,0.5,0,0,1-.081.065l-0.035.019-0.025,0c-0.633.315-1.575,0.412-1.694,0.91H38.1V689.4h6.106v-0.343h-0.08c-0.119-.5-1.065-0.6-1.7-0.912l-0.04,0-0.032-.017a0.51,0.51,0,0,1-.08-0.065h0.032v0H42.275a1.885,1.885,0,0,1-.43-1.349A3.482,3.482,0,0,1,42.518,685.1Zm2.868-8.362H45.48v-0.613a0.088,0.088,0,0,0,.015-0.017c0.426-1.1,2.366-.665,2.278,1.3-0.053,1.189-1,3.029-3.87,5.791A13.748,13.748,0,0,0,45.386,676.734Zm-10.76.675c-0.087-1.97,1.852-2.409,2.279-1.3a0.071,0.071,0,0,0,.01.012H36.81v0.618h0.116a14.123,14.123,0,0,0,1.381,6.284C35.578,680.355,34.678,678.572,34.626,677.409Z" transform="translate(-34 -675)"/>
</svg>
