<?xml version="1.0" encoding="utf-8"?>
<!-- Generator: Adobe Illustrator 22.0.1, SVG Export Plug-In . SVG Version: 6.00 Build 0)  -->
<svg version="1.1" id="Layer_1" xmlns="http://www.w3.org/2000/svg" xmlns:xlink="http://www.w3.org/1999/xlink" x="0px" y="0px"
	 viewBox="0 0 14 14" style="enable-background:new 0 0 14 14;" xml:space="preserve">
<style type="text/css">
	.st0{fill:#69615E;}
</style>
<g>
	<polygon class="st0" points="10.6,7.2 9.9,6.5 7.5,8.9 7.5,6.4 7.5,1.9 7.5,0 6.5,0 6.5,1.9 6.5,6.4 6.5,8.9 4.1,6.5 3.4,7.2 
		6.3,10.1 6.3,10.1 7,10.8 7,10.8 7,10.8 7.7,10.1 7.7,10.1 	"/>
	<path class="st0" d="M13,10.8v1.3c0,0.5-0.4,1-1,1H1.9c-0.5,0-1-0.4-1-1v-1.3H0v1.3c0,1,0.9,1.9,1.9,1.9h10.2
		c1.1,0,1.9-0.9,1.9-1.9v-1.3H13z"/>
</g>
</svg>
