<?xml version="1.0" encoding="utf-8"?>
<!-- Generator: Adobe Illustrator 21.0.2, SVG Export Plug-In . SVG Version: 6.00 Build 0)  -->
<svg version="1.1" id="Слой_1" xmlns="http://www.w3.org/2000/svg" xmlns:xlink="http://www.w3.org/1999/xlink" x="0px" y="0px"
	 viewBox="0 0 85 85" style="enable-background:new 0 0 85 85;" xml:space="preserve">
<style type="text/css">
	.st0{display:none;fill:#201600;}
	.st1{fill:#9A999A;}
</style>
<polygon class="st0" points="152.5,53 131.5,33 110.5,53 124,53 124,83 139,83 139,53 "/>
<g>
	<path class="st1" d="M60,18c-0.7,0-1.4,0-2,0.1C54.1,9.2,45.3,3,35,3c-11.9,0-21.9,8.4-24.4,19.6C4.2,27.1,0,34.6,0,43
		c0,13.8,11.2,25,25,25c0.4,0,0.8,0,1.2,0H35V53H21.5l21-20l21,20H50v15h8.8c0.4,0,0.8,0,1.2,0c13.8,0,25-11.2,25-25S73.8,18,60,18z
		"/>
	<rect x="35" y="68" class="st1" width="15" height="15"/>
</g>
</svg>
