<?xml version="1.0" encoding="utf-8"?>
<!-- Generator: Adobe Illustrator 23.0.2, SVG Export Plug-In . SVG Version: 6.00 Build 0)  -->
<svg version="1.1" id="Layer_1" xmlns="http://www.w3.org/2000/svg" xmlns:xlink="http://www.w3.org/1999/xlink" x="0px" y="0px"
	 viewBox="0 0 15 15" style="enable-background:new 0 0 15 15;" xml:space="preserve">
<g>
	<polygon points="11.4,7.7 10.6,7 8,9.5 8,6.9 8,2 8,0 7,0 7,2 7,6.9 7,9.5 4.4,7 3.6,7.7 6.8,10.8 6.8,10.8 7.5,11.6 7.5,11.6 
		7.5,11.6 8.2,10.8 8.2,10.8 	"/>
	<path d="M13.9,11.6V13c0,0.5-0.4,1.1-1.1,1.1H2C1.5,14,1,13.6,1,13v-1.4H0V13c0,1.1,1,2,2,2H13c1.2,0,2-1,2-2v-1.4H13.9z"/>
</g>
</svg>
