<?xml version="1.0" encoding="utf-8"?>
<!-- Generator: Avocode 2.3.2-ea60620 - http://avocode.com -->
<svg height="15" width="15" xmlns:xlink="http://www.w3.org/1999/xlink" xmlns="http://www.w3.org/2000/svg" viewBox="0 0 15 15">
    <path fill="#0D0D0D" fill-rule="evenodd" d="M 14.22 10.28 C 13.46 8.94 9.24 7.5 8.96 7.41 C 8.9 7.39 8.02 7.21 8.44 6.69 C 9.1 6.08 9.58 5.14 9.64 4.3 C 9.67 4.27 9.7 4.24 9.75 4.2 C 9.75 4.2 9.89 3.73 9.87 3.02 C 9.88 2.8 9.87 2.56 9.84 2.28 C 9.84 2.28 9.55 0.39 7.93 0.1 C 7.93 0.1 6.6 -0.24 5.71 0.33 C 4.75 0.71 4.57 1.56 4.57 1.56 C 4.32 1.99 4.28 2.48 4.3 2.88 C 4.27 3.51 4.44 4.04 4.44 4.04 C 4.5 4.04 4.54 4.1 4.58 4.17 C 4.59 5.14 5.13 6.17 5.82 6.79 C 5.94 6.9 5.82 7.17 5.43 7.32 C 5.07 7.49 4.13 7.93 3.22 8.41 C 2.32 8.85 1.41 9.35 1.05 9.68 C 0.3 10.38 -0.34 12.43 0.22 13.3 C 4.07 15.24 10.07 15.92 14.9 13.23 C 15.25 12.56 14.59 10.93 14.22 10.28 Z" />
</svg>
