<?xml version="1.0" encoding="utf-8"?>
<!-- Generator: Avocode 2.3.2-ea60620 - http://avocode.com -->
<svg height="17" width="18" xmlns:xlink="http://www.w3.org/1999/xlink" xmlns="http://www.w3.org/2000/svg" viewBox="0 0 18 17">
    <path fill="#ffffff" fill-rule="evenodd" d="M 16.02 15.56 C 16.02 15.56 11.53 15.56 11.53 15.56 C 11.53 15.56 11.53 16.72 11.53 16.72 C 11.53 16.72 17.17 16.72 17.17 16.72 C 17.17 16.72 17.17 11.08 17.17 11.08 C 17.17 11.08 16.02 11.08 16.02 11.08 C 16.02 11.08 16.02 15.56 16.02 15.56 Z M 0.71 5.89 C 0.71 5.89 1.86 5.89 1.86 5.89 C 1.86 5.89 1.86 1.4 1.86 1.4 C 1.86 1.4 6.35 1.4 6.35 1.4 C 6.35 1.4 6.35 0.25 6.35 0.25 C 6.35 0.25 0.71 0.25 0.71 0.25 C 0.71 0.25 0.71 5.89 0.71 5.89 Z M 11.53 0.25 C 11.53 0.25 11.53 1.4 11.53 1.4 C 11.53 1.4 16.02 1.4 16.02 1.4 C 16.02 1.4 16.02 5.89 16.02 5.89 C 16.02 5.89 17.17 5.89 17.17 5.89 C 17.17 5.89 17.17 0.25 17.17 0.25 C 17.17 0.25 11.53 0.25 11.53 0.25 Z M 1.86 11.08 C 1.86 11.08 0.71 11.08 0.71 11.08 C 0.71 11.08 0.71 16.72 0.71 16.72 C 0.71 16.72 6.35 16.72 6.35 16.72 C 6.35 16.72 6.35 15.56 6.35 15.56 C 6.35 15.56 1.86 15.56 1.86 15.56 C 1.86 15.56 1.86 11.08 1.86 11.08 Z" />
</svg>