<?xml version="1.0" encoding="utf-8"?>
<!-- Generator: Adobe Illustrator 23.0.2, SVG Export Plug-In . SVG Version: 6.00 Build 0)  -->
<svg version="1.1" id="Layer_1" xmlns="http://www.w3.org/2000/svg" xmlns:xlink="http://www.w3.org/1999/xlink" x="0px" y="0px"
	 viewBox="0 0 15 15" style="enable-background:new 0 0 15 15;" xml:space="preserve">
<path d="M14.9,6.5L14.9,6.5l-2.1-0.5l0,0c-0.1-0.3-0.2-0.7-0.4-1l0,0l0,0L13.5,3l0,0c-0.4-0.5-0.9-1-1.4-1.4l0,0l-1.8,1.2l0,0
	c-0.3-0.2-0.7-0.3-1-0.4l0,0L8.6,0.1l-0.1,0C8.2,0,7.8,0,7.5,0c-0.3,0-0.7,0-1,0.1l-0.1,0L5.9,2.2l0,0c-0.3,0.1-0.7,0.2-1,0.4l0,0
	L3,1.5l0,0C2.4,1.9,1.9,2.4,1.5,3l0,0l1.2,1.8l0,0c-0.2,0.3-0.3,0.7-0.4,1l0,0L0.1,6.4l0,0.1C0,6.8,0,7.2,0,7.5c0,0.3,0,0.7,0.1,1
	l0,0.1l2.1,0.5l0,0c0.1,0.4,0.2,0.7,0.4,1l0,0L1.5,12l0,0c0.4,0.5,0.9,1,1.4,1.4l0,0l1.8-1.2l0,0c0.3,0.2,0.7,0.3,1,0.4l0,0l0.5,2.1
	l0.1,0c0.3,0,0.7,0.1,1,0.1c0.3,0,0.7,0,1-0.1l0.1,0l0.5-2.1l0,0c0.3-0.1,0.7-0.2,1-0.4l0,0l1.8,1.2l0,0c0.5-0.4,1-0.9,1.4-1.4l0,0
	l-1.2-1.8l0,0c0.2-0.3,0.3-0.7,0.4-1l0,0l2.1-0.5l0-0.1c0-0.3,0.1-0.7,0.1-1C15,7.2,15,6.8,14.9,6.5z M14.2,7.9L14.2,7.9l-1.6,0.4
	l-0.4,0.1l-0.1,0.4c-0.1,0.4-0.2,0.7-0.4,1l-0.2,0.3l1.1,1.8l0,0c-0.2,0.2-0.4,0.4-0.5,0.5l0,0l-1.8-1.1l-0.3,0.2
	c-0.3,0.2-0.7,0.3-1,0.4l-0.4,0.1l-0.5,2l-0.1,0c-0.2,0-0.3,0-0.4,0c-0.1,0-0.2,0-0.4,0l-0.1,0l-0.3-1.6l-0.1-0.4l-0.4-0.1
	c-0.4-0.1-0.7-0.2-1-0.4l-0.3-0.2l-1.8,1.1l0,0c-0.2-0.2-0.4-0.4-0.5-0.5l0,0l1.1-1.8L3.3,9.8C3.2,9.5,3,9.2,2.9,8.8L2.8,8.4l-2-0.5
	l0-0.1c0-0.1,0-0.3,0-0.4s0-0.3,0-0.4l0-0.1l1.7-0.4l0.4-0.1l0.1-0.4c0.1-0.4,0.2-0.7,0.4-1l0.2-0.3L2.4,3.1l0,0
	C2.6,2.8,2.8,2.6,3,2.5l0,0l1.8,1.1l0.3-0.2c0.3-0.2,0.7-0.3,1-0.4l0.4-0.1l0.5-2l0.1,0c0.3,0,0.5,0,0.8,0l0.1,0l0.4,1.7l0.1,0.4
	l0.4,0.1c0.4,0.1,0.7,0.2,1,0.4l0.3,0.2l1.8-1.1l0,0c0.2,0.2,0.4,0.4,0.5,0.5l0,0l-1.1,1.8l0.2,0.3c0.2,0.3,0.3,0.7,0.4,1l0.1,0.4
	l2,0.5l0,0.1c0,0.1,0,0.2,0,0.4C14.2,7.6,14.2,7.8,14.2,7.9z"/>
<path d="M7.5,4.4c-1.7,0-3.1,1.4-3.1,3.1c0,1.7,1.4,3.1,3.1,3.1c1.7,0,3.1-1.4,3.1-3.1S9.2,4.4,7.5,4.4z M7.5,9.9
	c-1.3,0-2.4-1.1-2.4-2.4c0-1.3,1.1-2.4,2.4-2.4s2.4,1.1,2.4,2.4C9.9,8.8,8.8,9.9,7.5,9.9z"/>
</svg>
