<?xml version="1.0" encoding="utf-8"?>
<!-- Generator: Adobe Illustrator 23.0.2, SVG Export Plug-In . SVG Version: 6.00 Build 0)  -->
<svg version="1.1" id="Layer_1" xmlns="http://www.w3.org/2000/svg" xmlns:xlink="http://www.w3.org/1999/xlink" x="0px" y="0px"
	 viewBox="0 0 15 15" style="enable-background:new 0 0 15 15;" xml:space="preserve">
<g>
	<g>
		<polygon points="15,15 11.4,15 11.4,14.5 14.5,14.5 14.5,11.4 15,11.4 		"/>
	</g>
	<g>
		<rect x="5.7" y="14.5" width="3.6" height="0.5"/>
	</g>
	<g>
		<polygon points="3.6,15 0,15 0,11.4 0.5,11.4 0.5,14.5 3.6,14.5 		"/>
	</g>
	<g>
		<rect y="5.7" width="0.5" height="3.6"/>
	</g>
	<g>
		<polygon points="0.5,3.6 0,3.6 0,0 3.6,0 3.6,0.5 0.5,0.5 		"/>
	</g>
	<g>
		<rect x="5.7" width="3.6" height="0.5"/>
	</g>
	<g>
		<polygon points="15,3.6 14.5,3.6 14.5,0.5 11.4,0.5 11.4,0 15,0 		"/>
	</g>
	<g>
		<rect x="14.5" y="5.7" width="0.5" height="3.6"/>
	</g>
</g>
</svg>
