<?xml version="1.0" encoding="UTF-8"?>
<!-- Generator: Adobe Illustrator 22.0.1, SVG Export Plug-In . SVG Version: 6.00 Build 0)  -->
<svg version="1.1" id="Layer_1" xmlns="http://www.w3.org/2000/svg" xmlns:xlink="http://www.w3.org/1999/xlink" x="0px" y="0px" viewBox="0 0 15.2 14" style="enable-background:new 0 0 15.2 14;" xml:space="preserve">
<style type="text/css">
	.st0{fill:#69615E;}
</style>
<g>
	<path class="st0" d="M10.5,9.8l1.4,1.4c-2.3,2.3-6.2,2.3-8.5,0c-0.7-0.7-1.2-1.6-1.4-2.5L0.9,9c0.3,1.1,0.9,2,1.7,2.9   c2.8,2.8,7.1,2.8,9.9,0l1.4,1.4l1.3-4.8h-0.2L10.5,9.8z"/>
	<path class="st0" d="M4.8,4.2L3.4,2.8c2.3-2.3,6.2-2.3,8.5,0c0.7,0.7,1.2,1.5,1.4,2.4l1-0.3c-0.3-1-0.9-2-1.7-2.9   c-2.8-2.8-7.2-2.8-9.9,0L1.3,0.7L0,5.4h0.2L4.8,4.2z"/>
</g>
</svg> 