<?xml version="1.0" encoding="utf-8"?>
<!-- Generator: Adobe Illustrator 23.0.2, SVG Export Plug-In . SVG Version: 6.00 Build 0)  -->
<svg version="1.1" id="Layer_1" xmlns="http://www.w3.org/2000/svg" xmlns:xlink="http://www.w3.org/1999/xlink" x="0px" y="0px"
	 viewBox="0 0 369 662" style="enable-background:new 0 0 369 662;" xml:space="preserve">
<style type="text/css">
	.st0{display:none;}
	.st1{display:inline;fill:#FEF1EB;}
	.st2{display:inline;fill:#A1A4A3;}
	.st3{display:inline;}
	.st4{display:none;fill:#A1A4A3;}
	.st5{fill:#FFFFFF;}
</style>
<g class="st0">
	<rect x="24.2" y="8.8" class="st1" width="321.5" height="644.5"/>
	<path class="st2" d="M345.5,9v644h-321V9H345.5 M346,8.5H24v645h322V8.5L346,8.5z"/>
</g>
<g class="st0">
	<rect x="24" y="223.3" class="st2" width="322" height="0.5"/>
</g>
<g class="st0">
	<rect x="24" y="438.2" class="st2" width="322" height="0.5"/>
</g>
<g class="st0">
	<g class="st3">
		<rect x="14" y="330.8" width="342" height="0.5"/>
	</g>
	<circle class="st3" cx="354.5" cy="331" r="1.5"/>
	<circle class="st3" cx="15.5" cy="331" r="1.5"/>
</g>
<g class="st0">
	<rect x="16" y="223.3" class="st2" width="5" height="0.5"/>
	<rect x="8" y="223.3" class="st2" width="5" height="0.5"/>
	<rect y="223.3" class="st2" width="5" height="0.5"/>
</g>
<g class="st0">
	<rect x="16" y="438.2" class="st2" width="5" height="0.5"/>
	<rect x="8" y="438.2" class="st2" width="5" height="0.5"/>
	<rect y="438.2" class="st2" width="5" height="0.5"/>
</g>
<g class="st0">
	<rect x="364" y="223.3" class="st2" width="5" height="0.5"/>
	<rect x="356" y="223.3" class="st2" width="5" height="0.5"/>
	<rect x="348" y="223.3" class="st2" width="5" height="0.5"/>
</g>
<g class="st0">
	<rect x="364" y="438.2" class="st2" width="5" height="0.5"/>
	<rect x="356" y="438.2" class="st2" width="5" height="0.5"/>
	<rect x="348" y="438.2" class="st2" width="5" height="0.5"/>
</g>
<g class="st0">
	<rect x="24" class="st2" width="0.5" height="5"/>
	<rect x="345.5" class="st2" width="0.5" height="5"/>
</g>
<g class="st0">
	<rect x="24" y="657" class="st2" width="0.5" height="5"/>
	<rect x="345.5" y="657" class="st2" width="0.5" height="5"/>
</g>
<rect x="383.8" y="168.4" class="st4" width="0.5" height="2.2"/>
<g class="st0">
	<g class="st3">
		<rect x="238.8" y="8.5" class="st5" width="106.7" height="214.8"/>
	</g>
	<g class="st3">
		<rect x="131.7" y="8.5" class="st5" width="106.7" height="214.8"/>
	</g>
	<g class="st3">
		<rect x="24.5" y="8.5" class="st5" width="106.7" height="214.8"/>
	</g>
	<g class="st3">
		<rect x="24.5" y="223.8" class="st5" width="106.7" height="106.9"/>
	</g>
	<g class="st3">
		<rect x="238.8" y="223.8" class="st5" width="106.7" height="106.9"/>
	</g>
	<g class="st3">
		<rect x="131.7" y="223.8" class="st5" width="106.7" height="106.9"/>
	</g>
</g>
<g>
	<rect x="238.8" y="438.7" class="st5" width="106.7" height="214.8"/>
</g>
<g>
	<rect x="131.7" y="438.7" class="st5" width="106.7" height="214.8"/>
</g>
<g>
	<rect x="24.5" y="438.7" class="st5" width="106.7" height="214.8"/>
</g>
<g>
	<rect x="24.5" y="331.2" class="st5" width="106.7" height="106.9"/>
</g>
<g>
	<rect x="238.8" y="331.2" class="st5" width="106.7" height="106.9"/>
</g>
<g>
	<rect x="131.7" y="331.2" class="st5" width="106.7" height="106.9"/>
</g>
</svg>
